<svg width="12" height="12" viewBox="0 0 36 36" fill="none" xmlns="http://www.w3.org/2000/svg">
<path d="M35.9828 28.411C36.0591 28.9958 35.881 29.5042 35.4493 29.9364L30.3806 34.9701C30.1519 35.2243 29.8534 35.4406 29.485 35.6184C29.1166 35.7964 28.7546 35.9108 28.3991 35.9616C28.3737 35.9616 28.2972 35.9682 28.1701 35.9809C28.0433 35.9935 27.8782 36 27.6749 36C27.192 36 26.4107 35.9174 25.3309 35.7521C24.2511 35.5867 22.93 35.1799 21.3676 34.5317C19.8048 33.8834 18.0327 32.9108 16.051 31.6144C14.0693 30.3179 11.9605 28.5381 9.72464 26.2754C7.94614 24.5211 6.47253 22.8432 5.3038 21.2416C4.13507 19.6398 3.19501 18.1589 2.48361 16.7987C1.77215 15.4385 1.2386 14.2055 0.882898 13.0996C0.527198 11.9936 0.28583 11.0402 0.158795 10.2394C0.0317589 9.43854 -0.0190553 8.80931 0.00635178 8.35168C0.0317589 7.89405 0.0444625 7.63982 0.0444625 7.58897C0.0952767 7.23304 0.209609 6.87075 0.387459 6.50211C0.565309 6.13346 0.781269 5.83474 1.03534 5.60592L6.10406 0.533897C6.45976 0.177966 6.86628 0 7.3236 0C7.6539 0 7.94608 0.0953388 8.20015 0.286016C8.45422 0.476694 8.67018 0.711863 8.84803 0.991524L12.9259 8.73304C13.1545 9.13981 13.2181 9.58473 13.1164 10.0678C13.0148 10.5508 12.7988 10.9576 12.4685 11.2881L10.6011 13.1568C10.5503 13.2076 10.5058 13.2902 10.4677 13.4046C10.4296 13.519 10.4106 13.6144 10.4106 13.6907C10.5122 14.2246 10.7409 14.8347 11.0966 15.5212C11.4014 16.1313 11.8715 16.875 12.5067 17.7521C13.1418 18.6292 14.0438 19.6397 15.2125 20.7838C16.3558 21.9534 17.3721 22.8622 18.2614 23.5106C19.1504 24.1587 19.8938 24.6356 20.4909 24.9406C21.088 25.2457 21.5453 25.43 21.8628 25.4934L22.3391 25.5888C22.3899 25.5888 22.4727 25.5697 22.5869 25.5316C22.7012 25.4934 22.7838 25.449 22.8347 25.3981L25.0069 23.1862C25.4645 22.7795 25.9978 22.5761 26.6076 22.5761C27.0397 22.5761 27.3825 22.6523 27.6365 22.8049H27.6746L35.0299 27.1524C35.5636 27.4831 35.8811 27.9025 35.9828 28.411Z" fill="white"/>
</svg>
